<svg xmlns="http://www.w3.org/2000/svg" xmlns:xlink="http://www.w3.org/1999/xlink" width="250" zoomAndPan="magnify" viewBox="0 0 187.5 89.999999" height="120" preserveAspectRatio="xMidYMid meet" version="1.0"><defs><g/><clipPath id="id1"><path d="M 60 13.597656 L 66 13.597656 L 66 32 L 60 32 Z M 60 13.597656 " clip-rule="nonzero"/></clipPath><clipPath id="id2"><path d="M 9 16 L 69 16 L 69 76.597656 L 9 76.597656 Z M 9 16 " clip-rule="nonzero"/></clipPath><clipPath id="id3"><path d="M 22.675781 36 L 50 36 L 50 63.734375 L 22.675781 63.734375 Z M 22.675781 36 " clip-rule="nonzero"/></clipPath><clipPath id="id4"><path d="M 26 32.984375 L 53.425781 32.984375 L 53.425781 60 L 26 60 Z M 26 32.984375 " clip-rule="nonzero"/></clipPath></defs><path fill="#004aad" d="M 54 19.597656 L 72 19.597656 L 72 25.597656 L 54 25.597656 Z M 54 19.597656 " fill-opacity="1" fill-rule="evenodd"/><g clip-path="url(#id1)"><path fill="#004aad" d="M 60 13.597656 L 66 13.597656 L 66 31.597656 L 60 31.597656 Z M 60 13.597656 " fill-opacity="1" fill-rule="evenodd"/></g><g clip-path="url(#id2)"><path fill="#7f0392" d="M 18 22.597656 C 16.34375 22.597656 15 23.941406 15 25.597656 L 15 67.597656 C 15 69.253906 16.34375 70.597656 18 70.597656 L 60 70.597656 C 61.65625 70.597656 63 69.253906 63 67.597656 L 63 39.097656 L 69 39.097656 L 69 67.597656 C 69 72.570312 64.96875 76.597656 60 76.597656 L 18 76.597656 C 13.03125 76.597656 9 72.570312 9 67.597656 L 9 25.597656 C 9 20.628906 13.03125 16.597656 18 16.597656 L 46.5 16.597656 L 46.5 22.597656 Z M 18 22.597656 " fill-opacity="1" fill-rule="evenodd"/></g><g clip-path="url(#id3)"><path fill="#a6a6a6" d="M 25.675781 36.734375 C 24.019531 36.734375 22.675781 38.074219 22.675781 39.734375 L 22.675781 60.734375 C 22.675781 62.390625 24.019531 63.734375 25.675781 63.734375 L 46.675781 63.734375 C 48.332031 63.734375 49.675781 62.390625 49.675781 60.734375 L 49.675781 39.734375 C 49.675781 38.074219 48.332031 36.734375 46.675781 36.734375 Z M 25.675781 36.734375 " fill-opacity="1" fill-rule="nonzero"/></g><g clip-path="url(#id4)"><path fill="#545454" d="M 29.425781 32.984375 C 27.769531 32.984375 26.425781 34.324219 26.425781 35.984375 L 26.425781 56.984375 C 26.425781 58.640625 27.769531 59.984375 29.425781 59.984375 L 50.425781 59.984375 C 52.082031 59.984375 53.425781 58.640625 53.425781 56.984375 L 53.425781 35.984375 C 53.425781 34.324219 52.082031 32.984375 50.425781 32.984375 Z M 29.425781 32.984375 " fill-opacity="1" fill-rule="nonzero"/></g><path fill="#a6a6a6" d="M 37.035156 40.003906 C 36.578125 39.683594 35.980469 39.644531 35.484375 39.902344 C 34.988281 40.160156 34.675781 40.671875 34.675781 41.234375 L 34.675781 51.734375 C 34.675781 52.292969 34.988281 52.804688 35.484375 53.0625 C 35.980469 53.320312 36.578125 53.28125 37.035156 52.960938 L 44.535156 47.710938 C 44.9375 47.429688 45.175781 46.972656 45.175781 46.484375 C 45.175781 45.992188 44.9375 45.535156 44.535156 45.253906 Z M 37.035156 40.003906 " fill-opacity="1" fill-rule="nonzero"/><g fill="#004aad" fill-opacity="1"><g transform="translate(85.142586, 38.385265)"><g><path d="M 7.890625 -8.015625 C 6.910156 -8.347656 6.019531 -8.6875 5.21875 -9.03125 C 4.425781 -9.375 3.738281 -9.789062 3.15625 -10.28125 C 2.582031 -10.769531 2.132812 -11.351562 1.8125 -12.03125 C 1.488281 -12.707031 1.328125 -13.535156 1.328125 -14.515625 C 1.328125 -16.398438 2.050781 -17.90625 3.5 -19.03125 C 4.957031 -20.164062 7 -20.734375 9.625 -20.734375 C 10.570312 -20.734375 11.457031 -20.664062 12.28125 -20.53125 C 13.101562 -20.394531 13.804688 -20.1875 14.390625 -19.90625 C 14.984375 -19.632812 15.445312 -19.28125 15.78125 -18.84375 C 16.113281 -18.414062 16.28125 -17.914062 16.28125 -17.34375 C 16.28125 -16.757812 16.144531 -16.265625 15.875 -15.859375 C 15.601562 -15.453125 15.28125 -15.101562 14.90625 -14.8125 C 14.414062 -15.125 13.757812 -15.394531 12.9375 -15.625 C 12.125 -15.851562 11.226562 -15.96875 10.25 -15.96875 C 9.25 -15.96875 8.515625 -15.828125 8.046875 -15.546875 C 7.585938 -15.273438 7.359375 -14.929688 7.359375 -14.515625 C 7.359375 -14.179688 7.5 -13.90625 7.78125 -13.6875 C 8.070312 -13.476562 8.503906 -13.285156 9.078125 -13.109375 L 10.84375 -12.546875 C 12.9375 -11.878906 14.539062 -11.03125 15.65625 -10 C 16.78125 -8.96875 17.34375 -7.566406 17.34375 -5.796875 C 17.34375 -3.910156 16.597656 -2.382812 15.109375 -1.21875 C 13.617188 -0.0507812 11.429688 0.53125 8.546875 0.53125 C 7.523438 0.53125 6.578125 0.445312 5.703125 0.28125 C 4.828125 0.113281 4.0625 -0.128906 3.40625 -0.453125 C 2.75 -0.773438 2.238281 -1.171875 1.875 -1.640625 C 1.507812 -2.117188 1.328125 -2.671875 1.328125 -3.296875 C 1.328125 -3.941406 1.515625 -4.488281 1.890625 -4.9375 C 2.273438 -5.394531 2.6875 -5.742188 3.125 -5.984375 C 3.75 -5.503906 4.507812 -5.082031 5.40625 -4.71875 C 6.300781 -4.363281 7.285156 -4.1875 8.359375 -4.1875 C 9.441406 -4.1875 10.203125 -4.351562 10.640625 -4.6875 C 11.085938 -5.019531 11.3125 -5.410156 11.3125 -5.859375 C 11.3125 -6.296875 11.132812 -6.628906 10.78125 -6.859375 C 10.425781 -7.097656 9.925781 -7.332031 9.28125 -7.5625 Z M 7.890625 -8.015625 "/></g></g></g><g fill="#004aad" fill-opacity="1"><g transform="translate(103.480596, 38.385265)"><g><path d="M 20.203125 -0.140625 C 19.953125 -0.0664062 19.566406 0 19.046875 0.0625 C 18.523438 0.132812 18.007812 0.171875 17.5 0.171875 C 16.988281 0.171875 16.539062 0.128906 16.15625 0.046875 C 15.769531 -0.0234375 15.441406 -0.160156 15.171875 -0.359375 C 14.910156 -0.566406 14.710938 -0.847656 14.578125 -1.203125 C 14.441406 -1.554688 14.375 -2.019531 14.375 -2.59375 L 14.375 -7.78125 L 7.984375 -7.78125 L 7.984375 -0.140625 C 7.742188 -0.0664062 7.363281 0 6.84375 0.0625 C 6.320312 0.132812 5.804688 0.171875 5.296875 0.171875 C 4.785156 0.171875 4.332031 0.128906 3.9375 0.046875 C 3.550781 -0.0234375 3.222656 -0.160156 2.953125 -0.359375 C 2.691406 -0.566406 2.492188 -0.847656 2.359375 -1.203125 C 2.222656 -1.554688 2.15625 -2.019531 2.15625 -2.59375 L 2.15625 -20.171875 C 2.40625 -20.210938 2.796875 -20.269531 3.328125 -20.34375 C 3.859375 -20.425781 4.367188 -20.46875 4.859375 -20.46875 C 5.367188 -20.46875 5.816406 -20.425781 6.203125 -20.34375 C 6.597656 -20.269531 6.925781 -20.132812 7.1875 -19.9375 C 7.457031 -19.738281 7.65625 -19.460938 7.78125 -19.109375 C 7.914062 -18.753906 7.984375 -18.285156 7.984375 -17.703125 L 7.984375 -12.375 L 14.375 -12.375 L 14.375 -20.171875 C 14.625 -20.210938 15.015625 -20.269531 15.546875 -20.34375 C 16.078125 -20.425781 16.585938 -20.46875 17.078125 -20.46875 C 17.585938 -20.46875 18.035156 -20.425781 18.421875 -20.34375 C 18.804688 -20.269531 19.128906 -20.132812 19.390625 -19.9375 C 19.660156 -19.738281 19.863281 -19.460938 20 -19.109375 C 20.132812 -18.753906 20.203125 -18.285156 20.203125 -17.703125 Z M 20.203125 -0.140625 "/></g></g></g><g fill="#004aad" fill-opacity="1"><g transform="translate(125.845646, 38.385265)"><g><path d="M 6.453125 -19.5625 C 6.828125 -19.789062 7.394531 -20.003906 8.15625 -20.203125 C 8.925781 -20.398438 9.703125 -20.5 10.484375 -20.5 C 11.585938 -20.5 12.566406 -20.335938 13.421875 -20.015625 C 14.273438 -19.691406 14.828125 -19.1875 15.078125 -18.5 C 15.472656 -17.351562 15.90625 -16.015625 16.375 -14.484375 C 16.84375 -12.953125 17.304688 -11.367188 17.765625 -9.734375 C 18.234375 -8.097656 18.6875 -6.488281 19.125 -4.90625 C 19.570312 -3.320312 19.960938 -1.921875 20.296875 -0.703125 C 20.035156 -0.390625 19.640625 -0.140625 19.109375 0.046875 C 18.578125 0.234375 17.941406 0.328125 17.203125 0.328125 C 16.671875 0.328125 16.222656 0.28125 15.859375 0.1875 C 15.492188 0.101562 15.191406 -0.0234375 14.953125 -0.203125 C 14.722656 -0.378906 14.535156 -0.609375 14.390625 -0.890625 C 14.242188 -1.179688 14.117188 -1.515625 14.015625 -1.890625 L 13.40625 -4.1875 L 7.390625 -4.1875 C 7.210938 -3.519531 7.035156 -2.832031 6.859375 -2.125 C 6.679688 -1.414062 6.503906 -0.726562 6.328125 -0.0625 C 6.015625 0.0390625 5.6875 0.128906 5.34375 0.203125 C 5 0.285156 4.582031 0.328125 4.09375 0.328125 C 2.957031 0.328125 2.117188 0.132812 1.578125 -0.25 C 1.035156 -0.632812 0.765625 -1.171875 0.765625 -1.859375 C 0.765625 -2.171875 0.804688 -2.484375 0.890625 -2.796875 C 0.984375 -3.109375 1.085938 -3.472656 1.203125 -3.890625 C 1.359375 -4.492188 1.570312 -5.238281 1.84375 -6.125 C 2.125 -7.007812 2.429688 -7.96875 2.765625 -9 C 3.097656 -10.03125 3.453125 -11.085938 3.828125 -12.171875 C 4.203125 -13.265625 4.554688 -14.289062 4.890625 -15.25 C 5.222656 -16.21875 5.523438 -17.078125 5.796875 -17.828125 C 6.078125 -18.585938 6.296875 -19.164062 6.453125 -19.5625 Z M 10.453125 -15.28125 C 10.140625 -14.34375 9.785156 -13.300781 9.390625 -12.15625 C 9.003906 -11.019531 8.660156 -9.863281 8.359375 -8.6875 L 12.484375 -8.6875 C 12.171875 -9.882812 11.851562 -11.050781 11.53125 -12.1875 C 11.207031 -13.332031 10.914062 -14.363281 10.65625 -15.28125 Z M 10.453125 -15.28125 "/></g></g></g><g fill="#004aad" fill-opacity="1"><g transform="translate(146.713033, 38.385265)"><g><path d="M 7.953125 -6.515625 L 7.953125 -0.140625 C 7.710938 -0.0664062 7.332031 0 6.8125 0.0625 C 6.289062 0.132812 5.773438 0.171875 5.265625 0.171875 C 4.753906 0.171875 4.300781 0.128906 3.90625 0.046875 C 3.519531 -0.0234375 3.195312 -0.160156 2.9375 -0.359375 C 2.6875 -0.566406 2.492188 -0.847656 2.359375 -1.203125 C 2.222656 -1.554688 2.15625 -2.019531 2.15625 -2.59375 L 2.15625 -18.265625 C 2.15625 -18.734375 2.28125 -19.09375 2.53125 -19.34375 C 2.789062 -19.601562 3.144531 -19.8125 3.59375 -19.96875 C 4.34375 -20.238281 5.21875 -20.429688 6.21875 -20.546875 C 7.21875 -20.671875 8.285156 -20.734375 9.421875 -20.734375 C 12.484375 -20.734375 14.789062 -20.085938 16.34375 -18.796875 C 17.894531 -17.515625 18.671875 -15.773438 18.671875 -13.578125 C 18.671875 -12.203125 18.316406 -11.023438 17.609375 -10.046875 C 16.898438 -9.078125 16.054688 -8.320312 15.078125 -7.78125 C 15.878906 -6.695312 16.664062 -5.675781 17.4375 -4.71875 C 18.21875 -3.769531 18.828125 -2.90625 19.265625 -2.125 C 19.046875 -1.351562 18.640625 -0.757812 18.046875 -0.34375 C 17.460938 0.0625 16.804688 0.265625 16.078125 0.265625 C 15.585938 0.265625 15.164062 0.207031 14.8125 0.09375 C 14.457031 -0.0078125 14.144531 -0.160156 13.875 -0.359375 C 13.613281 -0.566406 13.367188 -0.8125 13.140625 -1.09375 C 12.921875 -1.382812 12.710938 -1.695312 12.515625 -2.03125 L 9.71875 -6.515625 Z M 10.046875 -10.953125 C 10.890625 -10.953125 11.554688 -11.164062 12.046875 -11.59375 C 12.535156 -12.03125 12.78125 -12.671875 12.78125 -13.515625 C 12.78125 -14.359375 12.507812 -14.992188 11.96875 -15.421875 C 11.425781 -15.859375 10.566406 -16.078125 9.390625 -16.078125 C 9.054688 -16.078125 8.785156 -16.066406 8.578125 -16.046875 C 8.378906 -16.023438 8.160156 -15.988281 7.921875 -15.9375 L 7.921875 -10.953125 Z M 10.046875 -10.953125 "/></g></g></g><g fill="#004aad" fill-opacity="1"><g transform="translate(166.981354, 38.385265)"><g><path d="M 2.15625 -17.078125 C 2.15625 -18.023438 2.429688 -18.773438 2.984375 -19.328125 C 3.546875 -19.890625 4.304688 -20.171875 5.265625 -20.171875 L 16.234375 -20.171875 C 16.390625 -19.921875 16.53125 -19.597656 16.65625 -19.203125 C 16.78125 -18.804688 16.84375 -18.382812 16.84375 -17.9375 C 16.84375 -17.09375 16.65625 -16.492188 16.28125 -16.140625 C 15.914062 -15.785156 15.4375 -15.609375 14.84375 -15.609375 L 7.828125 -15.609375 L 7.828125 -12.515625 L 15.3125 -12.515625 C 15.46875 -12.265625 15.601562 -11.945312 15.71875 -11.5625 C 15.84375 -11.175781 15.90625 -10.757812 15.90625 -10.3125 C 15.90625 -9.46875 15.726562 -8.867188 15.375 -8.515625 C 15.019531 -8.160156 14.539062 -7.984375 13.9375 -7.984375 L 7.828125 -7.984375 L 7.828125 -4.5 L 16.375 -4.5 C 16.53125 -4.25 16.664062 -3.921875 16.78125 -3.515625 C 16.90625 -3.117188 16.96875 -2.703125 16.96875 -2.265625 C 16.96875 -1.421875 16.785156 -0.816406 16.421875 -0.453125 C 16.054688 -0.0859375 15.578125 0.09375 14.984375 0.09375 L 5.265625 0.09375 C 4.304688 0.09375 3.546875 -0.179688 2.984375 -0.734375 C 2.429688 -1.285156 2.15625 -2.039062 2.15625 -3 Z M 2.15625 -17.078125 "/></g></g></g><g fill="#7f0392" fill-opacity="1"><g transform="translate(82.863274, 73.838771)"><g><path d="M 12.78125 -14.21875 C 14.007812 -14.21875 14.953125 -14.503906 15.609375 -15.078125 C 16.265625 -15.648438 16.59375 -16.519531 16.59375 -17.6875 C 16.59375 -18.789062 16.25 -19.640625 15.5625 -20.234375 C 14.875 -20.835938 13.875 -21.140625 12.5625 -21.140625 C 12.09375 -21.140625 11.703125 -21.128906 11.390625 -21.109375 C 11.085938 -21.097656 10.773438 -21.0625 10.453125 -21 L 10.453125 -14.21875 Z M 10.5 -0.171875 C 10.175781 -0.0859375 9.671875 -0.00390625 8.984375 0.078125 C 8.304688 0.171875 7.628906 0.21875 6.953125 0.21875 C 6.285156 0.21875 5.695312 0.164062 5.1875 0.0625 C 4.675781 -0.0390625 4.242188 -0.222656 3.890625 -0.484375 C 3.546875 -0.742188 3.285156 -1.109375 3.109375 -1.578125 C 2.929688 -2.046875 2.84375 -2.65625 2.84375 -3.40625 L 2.84375 -24.03125 C 2.84375 -24.644531 3.007812 -25.117188 3.34375 -25.453125 C 3.675781 -25.785156 4.140625 -26.054688 4.734375 -26.265625 C 5.722656 -26.609375 6.847656 -26.859375 8.109375 -27.015625 C 9.378906 -27.179688 10.660156 -27.265625 11.953125 -27.265625 C 15.972656 -27.265625 19.046875 -26.40625 21.171875 -24.6875 C 23.304688 -22.96875 24.375 -20.632812 24.375 -17.6875 C 24.375 -16.25 24.144531 -14.953125 23.6875 -13.796875 C 23.238281 -12.648438 22.566406 -11.660156 21.671875 -10.828125 C 20.785156 -9.992188 19.664062 -9.351562 18.3125 -8.90625 C 16.957031 -8.457031 15.390625 -8.234375 13.609375 -8.234375 L 10.5 -8.234375 Z M 10.5 -0.171875 "/></g></g></g><g fill="#7f0392" fill-opacity="1"><g transform="translate(108.287778, 73.838771)"><g><path d="M 1.53125 -13.3125 C 1.53125 -15.582031 1.882812 -17.59375 2.59375 -19.34375 C 3.3125 -21.09375 4.289062 -22.554688 5.53125 -23.734375 C 6.769531 -24.921875 8.226562 -25.820312 9.90625 -26.4375 C 11.582031 -27.050781 13.398438 -27.359375 15.359375 -27.359375 C 17.316406 -27.359375 19.132812 -27.050781 20.8125 -26.4375 C 22.488281 -25.820312 23.953125 -24.921875 25.203125 -23.734375 C 26.460938 -22.554688 27.445312 -21.09375 28.15625 -19.34375 C 28.875 -17.59375 29.234375 -15.582031 29.234375 -13.3125 C 29.234375 -11.03125 28.882812 -9.003906 28.1875 -7.234375 C 27.488281 -5.472656 26.519531 -4 25.28125 -2.8125 C 24.039062 -1.632812 22.570312 -0.738281 20.875 -0.125 C 19.1875 0.476562 17.347656 0.78125 15.359375 0.78125 C 13.378906 0.78125 11.539062 0.46875 9.84375 -0.15625 C 8.15625 -0.78125 6.695312 -1.691406 5.46875 -2.890625 C 4.238281 -4.085938 3.273438 -5.5625 2.578125 -7.3125 C 1.878906 -9.0625 1.53125 -11.0625 1.53125 -13.3125 Z M 9.40625 -13.3125 C 9.40625 -10.65625 9.941406 -8.671875 11.015625 -7.359375 C 12.097656 -6.046875 13.546875 -5.390625 15.359375 -5.390625 C 17.203125 -5.390625 18.660156 -6.046875 19.734375 -7.359375 C 20.816406 -8.671875 21.359375 -10.65625 21.359375 -13.3125 C 21.359375 -15.9375 20.820312 -17.90625 19.75 -19.21875 C 18.6875 -20.53125 17.238281 -21.1875 15.40625 -21.1875 C 13.59375 -21.1875 12.140625 -20.535156 11.046875 -19.234375 C 9.953125 -17.929688 9.40625 -15.957031 9.40625 -13.3125 Z M 9.40625 -13.3125 "/></g></g></g><g fill="#7f0392" fill-opacity="1"><g transform="translate(139.050981, 73.838771)"><g><path d="M 10.375 -10.546875 C 9.09375 -10.984375 7.925781 -11.425781 6.875 -11.875 C 5.820312 -12.332031 4.914062 -12.878906 4.15625 -13.515625 C 3.394531 -14.160156 2.800781 -14.925781 2.375 -15.8125 C 1.957031 -16.707031 1.75 -17.796875 1.75 -19.078125 C 1.75 -21.554688 2.703125 -23.539062 4.609375 -25.03125 C 6.523438 -26.519531 9.203125 -27.265625 12.640625 -27.265625 C 13.898438 -27.265625 15.066406 -27.175781 16.140625 -27 C 17.222656 -26.820312 18.148438 -26.550781 18.921875 -26.1875 C 19.703125 -25.820312 20.3125 -25.351562 20.75 -24.78125 C 21.1875 -24.21875 21.40625 -23.554688 21.40625 -22.796875 C 21.40625 -22.035156 21.226562 -21.382812 20.875 -20.84375 C 20.519531 -20.3125 20.097656 -19.851562 19.609375 -19.46875 C 18.960938 -19.882812 18.097656 -20.242188 17.015625 -20.546875 C 15.941406 -20.847656 14.765625 -21 13.484375 -21 C 12.171875 -21 11.207031 -20.816406 10.59375 -20.453125 C 9.976562 -20.085938 9.671875 -19.628906 9.671875 -19.078125 C 9.671875 -18.640625 9.859375 -18.28125 10.234375 -18 C 10.617188 -17.726562 11.191406 -17.476562 11.953125 -17.25 L 14.265625 -16.5 C 17.003906 -15.625 19.109375 -14.503906 20.578125 -13.140625 C 22.054688 -11.785156 22.796875 -9.941406 22.796875 -7.609375 C 22.796875 -5.128906 21.816406 -3.125 19.859375 -1.59375 C 17.910156 -0.0625 15.039062 0.703125 11.25 0.703125 C 9.90625 0.703125 8.65625 0.59375 7.5 0.375 C 6.351562 0.15625 5.347656 -0.160156 4.484375 -0.578125 C 3.617188 -1.003906 2.945312 -1.53125 2.46875 -2.15625 C 1.988281 -2.789062 1.75 -3.515625 1.75 -4.328125 C 1.75 -5.179688 1.992188 -5.90625 2.484375 -6.5 C 2.984375 -7.09375 3.523438 -7.550781 4.109375 -7.875 C 4.929688 -7.238281 5.929688 -6.6875 7.109375 -6.21875 C 8.296875 -5.75 9.585938 -5.515625 10.984375 -5.515625 C 12.410156 -5.515625 13.414062 -5.734375 14 -6.171875 C 14.582031 -6.609375 14.875 -7.117188 14.875 -7.703125 C 14.875 -8.285156 14.640625 -8.726562 14.171875 -9.03125 C 13.710938 -9.34375 13.054688 -9.644531 12.203125 -9.9375 Z M 10.375 -10.546875 "/></g></g></g><g fill="#7f0392" fill-opacity="1"><g transform="translate(163.162677, 73.838771)"><g><path d="M 1.625 -20.390625 C 1.414062 -20.710938 1.222656 -21.148438 1.046875 -21.703125 C 0.867188 -22.265625 0.78125 -22.847656 0.78125 -23.453125 C 0.78125 -24.597656 1.035156 -25.414062 1.546875 -25.90625 C 2.054688 -26.40625 2.722656 -26.65625 3.546875 -26.65625 L 22.625 -26.65625 C 22.832031 -26.332031 23.019531 -25.894531 23.1875 -25.34375 C 23.363281 -24.789062 23.453125 -24.207031 23.453125 -23.59375 C 23.453125 -22.445312 23.195312 -21.625 22.6875 -21.125 C 22.175781 -20.632812 21.515625 -20.390625 20.703125 -20.390625 L 15.84375 -20.390625 L 15.84375 -0.171875 C 15.519531 -0.0859375 15.015625 -0.00390625 14.328125 0.078125 C 13.648438 0.171875 12.972656 0.21875 12.296875 0.21875 C 11.628906 0.21875 11.039062 0.164062 10.53125 0.0625 C 10.019531 -0.0390625 9.585938 -0.222656 9.234375 -0.484375 C 8.878906 -0.742188 8.613281 -1.109375 8.4375 -1.578125 C 8.269531 -2.046875 8.1875 -2.65625 8.1875 -3.40625 L 8.1875 -20.390625 Z M 1.625 -20.390625 "/></g></g></g></svg>