<svg xmlns="http://www.w3.org/2000/svg" xmlns:xlink="http://www.w3.org/1999/xlink" width="250" zoomAndPan="magnify" viewBox="0 0 187.5 89.999999" height="120" preserveAspectRatio="xMidYMid meet" version="1.0"><defs><g/><clipPath id="id1"><path d="M 60 13.597656 L 66 13.597656 L 66 32 L 60 32 Z M 60 13.597656 " clip-rule="nonzero"/></clipPath><clipPath id="id2"><path d="M 9 16 L 69 16 L 69 76.597656 L 9 76.597656 Z M 9 16 " clip-rule="nonzero"/></clipPath><clipPath id="id3"><path d="M 22.675781 36 L 50 36 L 50 63.734375 L 22.675781 63.734375 Z M 22.675781 36 " clip-rule="nonzero"/></clipPath><clipPath id="id4"><path d="M 26 32.984375 L 53.425781 32.984375 L 53.425781 60 L 26 60 Z M 26 32.984375 " clip-rule="nonzero"/></clipPath></defs><path fill="#004aad" d="M 54 19.597656 L 72 19.597656 L 72 25.597656 L 54 25.597656 Z M 54 19.597656 " fill-opacity="1" fill-rule="evenodd"/><g clip-path="url(#id1)"><path fill="#004aad" d="M 60 13.597656 L 66 13.597656 L 66 31.597656 L 60 31.597656 Z M 60 13.597656 " fill-opacity="1" fill-rule="evenodd"/></g><g clip-path="url(#id2)"><path fill="#7f0392" d="M 18 22.597656 C 16.34375 22.597656 15 23.941406 15 25.597656 L 15 67.597656 C 15 69.253906 16.34375 70.597656 18 70.597656 L 60 70.597656 C 61.65625 70.597656 63 69.253906 63 67.597656 L 63 39.097656 L 69 39.097656 L 69 67.597656 C 69 72.570312 64.96875 76.597656 60 76.597656 L 18 76.597656 C 13.03125 76.597656 9 72.570312 9 67.597656 L 9 25.597656 C 9 20.628906 13.03125 16.597656 18 16.597656 L 46.5 16.597656 L 46.5 22.597656 Z M 18 22.597656 " fill-opacity="1" fill-rule="evenodd"/></g><g clip-path="url(#id3)"><path fill="#a6a6a6" d="M 25.675781 36.734375 C 24.019531 36.734375 22.675781 38.074219 22.675781 39.734375 L 22.675781 60.734375 C 22.675781 62.390625 24.019531 63.734375 25.675781 63.734375 L 46.675781 63.734375 C 48.332031 63.734375 49.675781 62.390625 49.675781 60.734375 L 49.675781 39.734375 C 49.675781 38.074219 48.332031 36.734375 46.675781 36.734375 Z M 25.675781 36.734375 " fill-opacity="1" fill-rule="nonzero"/></g><g clip-path="url(#id4)"><path fill="#545454" d="M 29.425781 32.984375 C 27.769531 32.984375 26.425781 34.324219 26.425781 35.984375 L 26.425781 56.984375 C 26.425781 58.640625 27.769531 59.984375 29.425781 59.984375 L 50.425781 59.984375 C 52.082031 59.984375 53.425781 58.640625 53.425781 56.984375 L 53.425781 35.984375 C 53.425781 34.324219 52.082031 32.984375 50.425781 32.984375 Z M 29.425781 32.984375 " fill-opacity="1" fill-rule="nonzero"/></g><path fill="#a6a6a6" d="M 37.035156 40.003906 C 36.578125 39.683594 35.980469 39.644531 35.484375 39.902344 C 34.988281 40.160156 34.675781 40.671875 34.675781 41.234375 L 34.675781 51.734375 C 34.675781 52.292969 34.988281 52.804688 35.484375 53.0625 C 35.980469 53.320312 36.578125 53.28125 37.035156 52.960938 L 44.535156 47.710938 C 44.9375 47.429688 45.175781 46.972656 45.175781 46.484375 C 45.175781 45.992188 44.9375 45.535156 44.535156 45.253906 Z M 37.035156 40.003906 " fill-opacity="1" fill-rule="nonzero"/><g fill="#004aad" fill-opacity="1"><g transform="translate(85.576166, 39.369676)"><g><path d="M 7.109375 -7.234375 C 6.234375 -7.535156 5.429688 -7.835938 4.703125 -8.140625 C 3.984375 -8.453125 3.363281 -8.828125 2.84375 -9.265625 C 2.320312 -9.710938 1.914062 -10.238281 1.625 -10.84375 C 1.34375 -11.457031 1.203125 -12.203125 1.203125 -13.078125 C 1.203125 -14.773438 1.851562 -16.132812 3.15625 -17.15625 C 4.46875 -18.175781 6.304688 -18.6875 8.671875 -18.6875 C 9.523438 -18.6875 10.320312 -18.625 11.0625 -18.5 C 11.8125 -18.382812 12.445312 -18.203125 12.96875 -17.953125 C 13.5 -17.703125 13.914062 -17.378906 14.21875 -16.984375 C 14.519531 -16.597656 14.671875 -16.144531 14.671875 -15.625 C 14.671875 -15.101562 14.550781 -14.65625 14.3125 -14.28125 C 14.070312 -13.914062 13.78125 -13.601562 13.4375 -13.34375 C 13 -13.625 12.410156 -13.867188 11.671875 -14.078125 C 10.929688 -14.296875 10.117188 -14.40625 9.234375 -14.40625 C 8.335938 -14.40625 7.675781 -14.28125 7.25 -14.03125 C 6.832031 -13.78125 6.625 -13.460938 6.625 -13.078125 C 6.625 -12.773438 6.753906 -12.53125 7.015625 -12.34375 C 7.273438 -12.15625 7.664062 -11.976562 8.1875 -11.8125 L 9.78125 -11.3125 C 11.65625 -10.707031 13.097656 -9.941406 14.109375 -9.015625 C 15.117188 -8.085938 15.625 -6.820312 15.625 -5.21875 C 15.625 -3.519531 14.953125 -2.144531 13.609375 -1.09375 C 12.273438 -0.0390625 10.304688 0.484375 7.703125 0.484375 C 6.785156 0.484375 5.929688 0.40625 5.140625 0.25 C 4.347656 0.101562 3.65625 -0.113281 3.0625 -0.40625 C 2.476562 -0.695312 2.019531 -1.054688 1.6875 -1.484375 C 1.363281 -1.910156 1.203125 -2.40625 1.203125 -2.96875 C 1.203125 -3.550781 1.367188 -4.046875 1.703125 -4.453125 C 2.046875 -4.859375 2.414062 -5.175781 2.8125 -5.40625 C 3.375 -4.957031 4.0625 -4.570312 4.875 -4.25 C 5.6875 -3.9375 6.570312 -3.78125 7.53125 -3.78125 C 8.507812 -3.78125 9.195312 -3.929688 9.59375 -4.234375 C 10 -4.535156 10.203125 -4.882812 10.203125 -5.28125 C 10.203125 -5.675781 10.039062 -5.976562 9.71875 -6.1875 C 9.394531 -6.40625 8.945312 -6.613281 8.375 -6.8125 Z M 7.109375 -7.234375 "/></g></g></g><g fill="#004aad" fill-opacity="1"><g transform="translate(102.106148, 39.369676)"><g><path d="M 18.203125 -0.125 C 17.984375 -0.0625 17.640625 0 17.171875 0.0625 C 16.703125 0.125 16.238281 0.15625 15.78125 0.15625 C 15.320312 0.15625 14.914062 0.117188 14.5625 0.046875 C 14.21875 -0.0234375 13.921875 -0.148438 13.671875 -0.328125 C 13.429688 -0.503906 13.25 -0.753906 13.125 -1.078125 C 13.007812 -1.398438 12.953125 -1.820312 12.953125 -2.34375 L 12.953125 -7.015625 L 7.203125 -7.015625 L 7.203125 -0.125 C 6.984375 -0.0625 6.632812 0 6.15625 0.0625 C 5.6875 0.125 5.222656 0.15625 4.765625 0.15625 C 4.304688 0.15625 3.898438 0.117188 3.546875 0.046875 C 3.203125 -0.0234375 2.910156 -0.148438 2.671875 -0.328125 C 2.429688 -0.503906 2.25 -0.753906 2.125 -1.078125 C 2.007812 -1.398438 1.953125 -1.820312 1.953125 -2.34375 L 1.953125 -18.1875 C 2.171875 -18.21875 2.519531 -18.269531 3 -18.34375 C 3.476562 -18.414062 3.9375 -18.453125 4.375 -18.453125 C 4.832031 -18.453125 5.238281 -18.414062 5.59375 -18.34375 C 5.945312 -18.269531 6.242188 -18.144531 6.484375 -17.96875 C 6.722656 -17.789062 6.898438 -17.539062 7.015625 -17.21875 C 7.140625 -16.894531 7.203125 -16.472656 7.203125 -15.953125 L 7.203125 -11.15625 L 12.953125 -11.15625 L 12.953125 -18.1875 C 13.179688 -18.21875 13.535156 -18.269531 14.015625 -18.34375 C 14.492188 -18.414062 14.953125 -18.453125 15.390625 -18.453125 C 15.847656 -18.453125 16.25 -18.414062 16.59375 -18.34375 C 16.945312 -18.269531 17.242188 -18.144531 17.484375 -17.96875 C 17.722656 -17.789062 17.898438 -17.539062 18.015625 -17.21875 C 18.140625 -16.894531 18.203125 -16.472656 18.203125 -15.953125 Z M 18.203125 -0.125 "/></g></g></g><g fill="#004aad" fill-opacity="1"><g transform="translate(122.266127, 39.369676)"><g><path d="M 5.8125 -17.640625 C 6.15625 -17.835938 6.671875 -18.023438 7.359375 -18.203125 C 8.054688 -18.390625 8.753906 -18.484375 9.453125 -18.484375 C 10.453125 -18.484375 11.335938 -18.335938 12.109375 -18.046875 C 12.878906 -17.753906 13.375 -17.300781 13.59375 -16.6875 C 13.945312 -15.644531 14.332031 -14.429688 14.75 -13.046875 C 15.175781 -11.671875 15.597656 -10.242188 16.015625 -8.765625 C 16.441406 -7.296875 16.851562 -5.847656 17.25 -4.421875 C 17.644531 -2.992188 17.992188 -1.726562 18.296875 -0.625 C 18.054688 -0.34375 17.695312 -0.117188 17.21875 0.046875 C 16.738281 0.210938 16.171875 0.296875 15.515625 0.296875 C 15.035156 0.296875 14.628906 0.253906 14.296875 0.171875 C 13.960938 0.0976562 13.691406 -0.015625 13.484375 -0.171875 C 13.273438 -0.335938 13.101562 -0.550781 12.96875 -0.8125 C 12.84375 -1.070312 12.726562 -1.367188 12.625 -1.703125 L 12.09375 -3.78125 L 6.65625 -3.78125 C 6.5 -3.175781 6.335938 -2.550781 6.171875 -1.90625 C 6.015625 -1.269531 5.859375 -0.65625 5.703125 -0.0625 C 5.421875 0.0390625 5.125 0.125 4.8125 0.1875 C 4.5 0.257812 4.125 0.296875 3.6875 0.296875 C 2.664062 0.296875 1.910156 0.125 1.421875 -0.21875 C 0.929688 -0.570312 0.6875 -1.0625 0.6875 -1.6875 C 0.6875 -1.957031 0.726562 -2.234375 0.8125 -2.515625 C 0.894531 -2.796875 0.984375 -3.128906 1.078125 -3.515625 C 1.222656 -4.046875 1.421875 -4.710938 1.671875 -5.515625 C 1.921875 -6.316406 2.191406 -7.179688 2.484375 -8.109375 C 2.785156 -9.046875 3.101562 -10.003906 3.4375 -10.984375 C 3.78125 -11.960938 4.101562 -12.882812 4.40625 -13.75 C 4.707031 -14.625 4.984375 -15.398438 5.234375 -16.078125 C 5.484375 -16.753906 5.675781 -17.273438 5.8125 -17.640625 Z M 9.421875 -13.765625 C 9.140625 -12.929688 8.820312 -12 8.46875 -10.96875 C 8.125 -9.9375 7.8125 -8.890625 7.53125 -7.828125 L 11.25 -7.828125 C 10.96875 -8.910156 10.679688 -9.96875 10.390625 -11 C 10.097656 -12.03125 9.832031 -12.953125 9.59375 -13.765625 Z M 9.421875 -13.765625 "/></g></g></g><g fill="#004aad" fill-opacity="1"><g transform="translate(141.076104, 39.369676)"><g><path d="M 7.171875 -5.875 L 7.171875 -0.125 C 6.953125 -0.0625 6.609375 0 6.140625 0.0625 C 5.671875 0.125 5.203125 0.15625 4.734375 0.15625 C 4.273438 0.15625 3.867188 0.117188 3.515625 0.046875 C 3.171875 -0.0234375 2.882812 -0.148438 2.65625 -0.328125 C 2.425781 -0.503906 2.25 -0.753906 2.125 -1.078125 C 2.007812 -1.398438 1.953125 -1.820312 1.953125 -2.34375 L 1.953125 -16.46875 C 1.953125 -16.882812 2.066406 -17.207031 2.296875 -17.4375 C 2.523438 -17.675781 2.835938 -17.863281 3.234375 -18 C 3.921875 -18.238281 4.710938 -18.410156 5.609375 -18.515625 C 6.503906 -18.628906 7.460938 -18.6875 8.484375 -18.6875 C 11.242188 -18.6875 13.320312 -18.101562 14.71875 -16.9375 C 16.125 -15.78125 16.828125 -14.210938 16.828125 -12.234375 C 16.828125 -10.992188 16.503906 -9.929688 15.859375 -9.046875 C 15.222656 -8.171875 14.46875 -7.492188 13.59375 -7.015625 C 14.3125 -6.035156 15.019531 -5.113281 15.71875 -4.25 C 16.414062 -3.394531 16.96875 -2.617188 17.375 -1.921875 C 17.164062 -1.222656 16.796875 -0.6875 16.265625 -0.3125 C 15.742188 0.0507812 15.148438 0.234375 14.484375 0.234375 C 14.046875 0.234375 13.664062 0.179688 13.34375 0.078125 C 13.03125 -0.015625 12.753906 -0.148438 12.515625 -0.328125 C 12.273438 -0.503906 12.050781 -0.722656 11.84375 -0.984375 C 11.644531 -1.242188 11.457031 -1.523438 11.28125 -1.828125 L 8.765625 -5.875 Z M 9.0625 -9.875 C 9.820312 -9.875 10.421875 -10.066406 10.859375 -10.453125 C 11.296875 -10.847656 11.515625 -11.425781 11.515625 -12.1875 C 11.515625 -12.9375 11.269531 -13.503906 10.78125 -13.890625 C 10.289062 -14.285156 9.515625 -14.484375 8.453125 -14.484375 C 8.160156 -14.484375 7.921875 -14.472656 7.734375 -14.453125 C 7.554688 -14.441406 7.359375 -14.414062 7.140625 -14.375 L 7.140625 -9.875 Z M 9.0625 -9.875 "/></g></g></g><g fill="#004aad" fill-opacity="1"><g transform="translate(159.34608, 39.369676)"><g><path d="M 1.953125 -15.390625 C 1.953125 -16.253906 2.203125 -16.9375 2.703125 -17.4375 C 3.203125 -17.9375 3.878906 -18.1875 4.734375 -18.1875 L 14.640625 -18.1875 C 14.773438 -17.957031 14.898438 -17.660156 15.015625 -17.296875 C 15.128906 -16.941406 15.1875 -16.566406 15.1875 -16.171875 C 15.1875 -15.410156 15.019531 -14.867188 14.6875 -14.546875 C 14.351562 -14.222656 13.914062 -14.0625 13.375 -14.0625 L 7.046875 -14.0625 L 7.046875 -11.28125 L 13.796875 -11.28125 C 13.941406 -11.0625 14.066406 -10.773438 14.171875 -10.421875 C 14.285156 -10.078125 14.34375 -9.703125 14.34375 -9.296875 C 14.34375 -8.535156 14.179688 -7.992188 13.859375 -7.671875 C 13.535156 -7.359375 13.101562 -7.203125 12.5625 -7.203125 L 7.046875 -7.203125 L 7.046875 -4.046875 L 14.765625 -4.046875 C 14.898438 -3.828125 15.019531 -3.535156 15.125 -3.171875 C 15.238281 -2.816406 15.296875 -2.441406 15.296875 -2.046875 C 15.296875 -1.285156 15.128906 -0.738281 14.796875 -0.40625 C 14.472656 -0.0703125 14.039062 0.09375 13.5 0.09375 L 4.734375 0.09375 C 3.878906 0.09375 3.203125 -0.15625 2.703125 -0.65625 C 2.203125 -1.15625 1.953125 -1.835938 1.953125 -2.703125 Z M 1.953125 -15.390625 "/></g></g></g><g fill="#7f0392" fill-opacity="1"><g transform="translate(82.863274, 69.369673)"><g><path d="M 11.6875 -13 C 12.800781 -13 13.65625 -13.257812 14.25 -13.78125 C 14.851562 -14.300781 15.15625 -15.09375 15.15625 -16.15625 C 15.15625 -17.175781 14.84375 -17.957031 14.21875 -18.5 C 13.59375 -19.039062 12.679688 -19.3125 11.484375 -19.3125 C 11.054688 -19.3125 10.703125 -19.304688 10.421875 -19.296875 C 10.140625 -19.285156 9.851562 -19.253906 9.5625 -19.203125 L 9.5625 -13 Z M 9.59375 -0.15625 C 9.300781 -0.0820312 8.84375 -0.00390625 8.21875 0.078125 C 7.59375 0.160156 6.972656 0.203125 6.359375 0.203125 C 5.742188 0.203125 5.203125 0.15625 4.734375 0.0625 C 4.273438 -0.03125 3.882812 -0.195312 3.5625 -0.4375 C 3.238281 -0.675781 2.992188 -1.007812 2.828125 -1.4375 C 2.671875 -1.863281 2.59375 -2.425781 2.59375 -3.125 L 2.59375 -21.953125 C 2.59375 -22.515625 2.742188 -22.945312 3.046875 -23.25 C 3.359375 -23.5625 3.78125 -23.8125 4.3125 -24 C 5.226562 -24.320312 6.265625 -24.554688 7.421875 -24.703125 C 8.578125 -24.847656 9.742188 -24.921875 10.921875 -24.921875 C 14.597656 -24.921875 17.410156 -24.132812 19.359375 -22.5625 C 21.304688 -20.988281 22.28125 -18.851562 22.28125 -16.15625 C 22.28125 -14.851562 22.070312 -13.675781 21.65625 -12.625 C 21.25 -11.570312 20.632812 -10.664062 19.8125 -9.90625 C 19 -9.144531 17.972656 -8.554688 16.734375 -8.140625 C 15.492188 -7.722656 14.0625 -7.515625 12.4375 -7.515625 L 9.59375 -7.515625 Z M 9.59375 -0.15625 "/></g></g></g><g fill="#7f0392" fill-opacity="1"><g transform="translate(106.10097, 69.369673)"><g><path d="M 1.40625 -12.15625 C 1.40625 -14.238281 1.726562 -16.078125 2.375 -17.671875 C 3.03125 -19.273438 3.925781 -20.613281 5.0625 -21.6875 C 6.195312 -22.769531 7.53125 -23.59375 9.0625 -24.15625 C 10.59375 -24.71875 12.253906 -25 14.046875 -25 C 15.828125 -25 17.484375 -24.71875 19.015625 -24.15625 C 20.546875 -23.59375 21.882812 -22.769531 23.03125 -21.6875 C 24.1875 -20.613281 25.085938 -19.273438 25.734375 -17.671875 C 26.390625 -16.078125 26.71875 -14.238281 26.71875 -12.15625 C 26.71875 -10.082031 26.394531 -8.238281 25.75 -6.625 C 25.113281 -5.007812 24.226562 -3.660156 23.09375 -2.578125 C 21.96875 -1.492188 20.628906 -0.671875 19.078125 -0.109375 C 17.535156 0.441406 15.859375 0.71875 14.046875 0.71875 C 12.222656 0.71875 10.539062 0.429688 9 -0.140625 C 7.457031 -0.710938 6.125 -1.546875 5 -2.640625 C 3.875 -3.734375 2.992188 -5.078125 2.359375 -6.671875 C 1.722656 -8.273438 1.40625 -10.101562 1.40625 -12.15625 Z M 8.59375 -12.15625 C 8.59375 -9.726562 9.085938 -7.914062 10.078125 -6.71875 C 11.066406 -5.519531 12.390625 -4.921875 14.046875 -4.921875 C 15.722656 -4.921875 17.050781 -5.519531 18.03125 -6.71875 C 19.019531 -7.914062 19.515625 -9.726562 19.515625 -12.15625 C 19.515625 -14.5625 19.023438 -16.363281 18.046875 -17.5625 C 17.078125 -18.757812 15.753906 -19.359375 14.078125 -19.359375 C 12.421875 -19.359375 11.09375 -18.765625 10.09375 -17.578125 C 9.09375 -16.390625 8.59375 -14.582031 8.59375 -12.15625 Z M 8.59375 -12.15625 "/></g></g></g><g fill="#7f0392" fill-opacity="1"><g transform="translate(134.218174, 69.369673)"><g><path d="M 9.484375 -9.640625 C 8.304688 -10.035156 7.238281 -10.441406 6.28125 -10.859375 C 5.320312 -11.273438 4.492188 -11.773438 3.796875 -12.359375 C 3.109375 -12.941406 2.566406 -13.640625 2.171875 -14.453125 C 1.785156 -15.273438 1.59375 -16.269531 1.59375 -17.4375 C 1.59375 -19.707031 2.46875 -21.519531 4.21875 -22.875 C 5.96875 -24.238281 8.414062 -24.921875 11.5625 -24.921875 C 12.707031 -24.921875 13.769531 -24.835938 14.75 -24.671875 C 15.738281 -24.515625 16.585938 -24.269531 17.296875 -23.9375 C 18.003906 -23.601562 18.554688 -23.175781 18.953125 -22.65625 C 19.359375 -22.132812 19.5625 -21.53125 19.5625 -20.84375 C 19.5625 -20.144531 19.398438 -19.546875 19.078125 -19.046875 C 18.753906 -18.554688 18.367188 -18.140625 17.921875 -17.796875 C 17.335938 -18.171875 16.550781 -18.5 15.5625 -18.78125 C 14.570312 -19.0625 13.488281 -19.203125 12.3125 -19.203125 C 11.113281 -19.203125 10.234375 -19.035156 9.671875 -18.703125 C 9.117188 -18.367188 8.84375 -17.945312 8.84375 -17.4375 C 8.84375 -17.039062 9.015625 -16.710938 9.359375 -16.453125 C 9.703125 -16.203125 10.222656 -15.972656 10.921875 -15.765625 L 13.046875 -15.078125 C 15.546875 -14.273438 17.46875 -13.253906 18.8125 -12.015625 C 20.164062 -10.773438 20.84375 -9.085938 20.84375 -6.953125 C 20.84375 -4.691406 19.945312 -2.859375 18.15625 -1.453125 C 16.375 -0.0546875 13.75 0.640625 10.28125 0.640625 C 9.050781 0.640625 7.910156 0.539062 6.859375 0.34375 C 5.804688 0.144531 4.882812 -0.144531 4.09375 -0.53125 C 3.3125 -0.925781 2.695312 -1.410156 2.25 -1.984375 C 1.8125 -2.554688 1.59375 -3.210938 1.59375 -3.953125 C 1.59375 -4.734375 1.816406 -5.394531 2.265625 -5.9375 C 2.722656 -6.488281 3.222656 -6.910156 3.765625 -7.203125 C 4.503906 -6.609375 5.414062 -6.097656 6.5 -5.671875 C 7.582031 -5.253906 8.765625 -5.046875 10.046875 -5.046875 C 11.347656 -5.046875 12.265625 -5.242188 12.796875 -5.640625 C 13.328125 -6.035156 13.59375 -6.503906 13.59375 -7.046875 C 13.59375 -7.578125 13.378906 -7.984375 12.953125 -8.265625 C 12.523438 -8.546875 11.925781 -8.816406 11.15625 -9.078125 Z M 9.484375 -9.640625 "/></g></g></g><g fill="#7f0392" fill-opacity="1"><g transform="translate(156.25598, 69.369673)"><g><path d="M 1.484375 -18.640625 C 1.296875 -18.929688 1.117188 -19.328125 0.953125 -19.828125 C 0.796875 -20.335938 0.71875 -20.875 0.71875 -21.4375 C 0.71875 -22.476562 0.953125 -23.222656 1.421875 -23.671875 C 1.890625 -24.128906 2.492188 -24.359375 3.234375 -24.359375 L 20.6875 -24.359375 C 20.863281 -24.066406 21.03125 -23.664062 21.1875 -23.15625 C 21.351562 -22.65625 21.4375 -22.125 21.4375 -21.5625 C 21.4375 -20.519531 21.203125 -19.769531 20.734375 -19.3125 C 20.273438 -18.863281 19.671875 -18.640625 18.921875 -18.640625 L 14.484375 -18.640625 L 14.484375 -0.15625 C 14.191406 -0.0820312 13.726562 -0.00390625 13.09375 0.078125 C 12.46875 0.160156 11.847656 0.203125 11.234375 0.203125 C 10.617188 0.203125 10.078125 0.15625 9.609375 0.0625 C 9.148438 -0.03125 8.757812 -0.195312 8.4375 -0.4375 C 8.113281 -0.675781 7.875 -1.007812 7.71875 -1.4375 C 7.5625 -1.863281 7.484375 -2.425781 7.484375 -3.125 L 7.484375 -18.640625 Z M 1.484375 -18.640625 "/></g></g></g></svg>