<svg xmlns="http://www.w3.org/2000/svg" xmlns:xlink="http://www.w3.org/1999/xlink" width="250" zoomAndPan="magnify" viewBox="0 0 187.5 89.999999" height="120" preserveAspectRatio="xMidYMid meet" version="1.0"><defs><g/><clipPath id="id1"><path d="M 60 13.597656 L 66 13.597656 L 66 32 L 60 32 Z M 60 13.597656 " clip-rule="nonzero"/></clipPath><clipPath id="id2"><path d="M 9 16 L 69 16 L 69 76.597656 L 9 76.597656 Z M 9 16 " clip-rule="nonzero"/></clipPath><clipPath id="id3"><path d="M 22.675781 36 L 50 36 L 50 63.734375 L 22.675781 63.734375 Z M 22.675781 36 " clip-rule="nonzero"/></clipPath><clipPath id="id4"><path d="M 26 32.984375 L 53.425781 32.984375 L 53.425781 60 L 26 60 Z M 26 32.984375 " clip-rule="nonzero"/></clipPath></defs><path fill="#004aad" d="M 54 19.597656 L 72 19.597656 L 72 25.597656 L 54 25.597656 Z M 54 19.597656 " fill-opacity="1" fill-rule="evenodd"/><g clip-path="url(#id1)"><path fill="#004aad" d="M 60 13.597656 L 66 13.597656 L 66 31.597656 L 60 31.597656 Z M 60 13.597656 " fill-opacity="1" fill-rule="evenodd"/></g><g clip-path="url(#id2)"><path fill="#7f0392" d="M 18 22.597656 C 16.34375 22.597656 15 23.941406 15 25.597656 L 15 67.597656 C 15 69.253906 16.34375 70.597656 18 70.597656 L 60 70.597656 C 61.65625 70.597656 63 69.253906 63 67.597656 L 63 39.097656 L 69 39.097656 L 69 67.597656 C 69 72.570312 64.96875 76.597656 60 76.597656 L 18 76.597656 C 13.03125 76.597656 9 72.570312 9 67.597656 L 9 25.597656 C 9 20.628906 13.03125 16.597656 18 16.597656 L 46.5 16.597656 L 46.5 22.597656 Z M 18 22.597656 " fill-opacity="1" fill-rule="evenodd"/></g><g clip-path="url(#id3)"><path fill="#a6a6a6" d="M 25.675781 36.734375 C 24.019531 36.734375 22.675781 38.074219 22.675781 39.734375 L 22.675781 60.734375 C 22.675781 62.390625 24.019531 63.734375 25.675781 63.734375 L 46.675781 63.734375 C 48.332031 63.734375 49.675781 62.390625 49.675781 60.734375 L 49.675781 39.734375 C 49.675781 38.074219 48.332031 36.734375 46.675781 36.734375 Z M 25.675781 36.734375 " fill-opacity="1" fill-rule="nonzero"/></g><g clip-path="url(#id4)"><path fill="#545454" d="M 29.425781 32.984375 C 27.769531 32.984375 26.425781 34.324219 26.425781 35.984375 L 26.425781 56.984375 C 26.425781 58.640625 27.769531 59.984375 29.425781 59.984375 L 50.425781 59.984375 C 52.082031 59.984375 53.425781 58.640625 53.425781 56.984375 L 53.425781 35.984375 C 53.425781 34.324219 52.082031 32.984375 50.425781 32.984375 Z M 29.425781 32.984375 " fill-opacity="1" fill-rule="nonzero"/></g><path fill="#a6a6a6" d="M 37.035156 40.003906 C 36.578125 39.683594 35.980469 39.644531 35.484375 39.902344 C 34.988281 40.160156 34.675781 40.671875 34.675781 41.234375 L 34.675781 51.734375 C 34.675781 52.292969 34.988281 52.804688 35.484375 53.0625 C 35.980469 53.320312 36.578125 53.28125 37.035156 52.960938 L 44.535156 47.710938 C 44.9375 47.429688 45.175781 46.972656 45.175781 46.484375 C 45.175781 45.992188 44.9375 45.535156 44.535156 45.253906 Z M 37.035156 40.003906 " fill-opacity="1" fill-rule="nonzero"/><g fill="#004aad" fill-opacity="1"><g transform="translate(85.576166, 39.369676)"><g><path d="M 7.109375 -7.234375 C 6.234375 -7.535156 5.429688 -7.835938 4.703125 -8.140625 C 3.984375 -8.453125 3.363281 -8.828125 2.84375 -9.265625 C 2.320312 -9.710938 1.914062 -10.238281 1.625 -10.84375 C 1.34375 -11.457031 1.203125 -12.203125 1.203125 -13.078125 C 1.203125 -14.773438 1.851562 -16.132812 3.15625 -17.15625 C 4.46875 -18.175781 6.304688 -18.6875 8.671875 -18.6875 C 9.523438 -18.6875 10.320312 -18.625 11.0625 -18.5 C 11.8125 -18.382812 12.445312 -18.203125 12.96875 -17.953125 C 13.5 -17.703125 13.914062 -17.378906 14.21875 -16.984375 C 14.519531 -16.597656 14.671875 -16.144531 14.671875 -15.625 C 14.671875 -15.101562 14.550781 -14.65625 14.3125 -14.28125 C 14.070312 -13.914062 13.78125 -13.601562 13.4375 -13.34375 C 13 -13.625 12.410156 -13.867188 11.671875 -14.078125 C 10.929688 -14.296875 10.117188 -14.40625 9.234375 -14.40625 C 8.335938 -14.40625 7.675781 -14.28125 7.25 -14.03125 C 6.832031 -13.78125 6.625 -13.460938 6.625 -13.078125 C 6.625 -12.773438 6.753906 -12.53125 7.015625 -12.34375 C 7.273438 -12.15625 7.664062 -11.976562 8.1875 -11.8125 L 9.78125 -11.3125 C 11.65625 -10.707031 13.097656 -9.941406 14.109375 -9.015625 C 15.117188 -8.085938 15.625 -6.820312 15.625 -5.21875 C 15.625 -3.519531 14.953125 -2.144531 13.609375 -1.09375 C 12.273438 -0.0390625 10.304688 0.484375 7.703125 0.484375 C 6.785156 0.484375 5.929688 0.40625 5.140625 0.25 C 4.347656 0.101562 3.65625 -0.113281 3.0625 -0.40625 C 2.476562 -0.695312 2.019531 -1.054688 1.6875 -1.484375 C 1.363281 -1.910156 1.203125 -2.40625 1.203125 -2.96875 C 1.203125 -3.550781 1.367188 -4.046875 1.703125 -4.453125 C 2.046875 -4.859375 2.414062 -5.175781 2.8125 -5.40625 C 3.375 -4.957031 4.0625 -4.570312 4.875 -4.25 C 5.6875 -3.9375 6.570312 -3.78125 7.53125 -3.78125 C 8.507812 -3.78125 9.195312 -3.929688 9.59375 -4.234375 C 10 -4.535156 10.203125 -4.882812 10.203125 -5.28125 C 10.203125 -5.675781 10.039062 -5.976562 9.71875 -6.1875 C 9.394531 -6.40625 8.945312 -6.613281 8.375 -6.8125 Z M 7.109375 -7.234375 "/></g></g></g><g fill="#004aad" fill-opacity="1"><g transform="translate(102.106148, 39.369676)"><g><path d="M 18.203125 -0.125 C 17.984375 -0.0625 17.640625 0 17.171875 0.0625 C 16.703125 0.125 16.238281 0.15625 15.78125 0.15625 C 15.320312 0.15625 14.914062 0.117188 14.5625 0.046875 C 14.21875 -0.0234375 13.921875 -0.148438 13.671875 -0.328125 C 13.429688 -0.503906 13.25 -0.753906 13.125 -1.078125 C 13.007812 -1.398438 12.953125 -1.820312 12.953125 -2.34375 L 12.953125 -7.015625 L 7.203125 -7.015625 L 7.203125 -0.125 C 6.984375 -0.0625 6.632812 0 6.15625 0.0625 C 5.6875 0.125 5.222656 0.15625 4.765625 0.15625 C 4.304688 0.15625 3.898438 0.117188 3.546875 0.046875 C 3.203125 -0.0234375 2.910156 -0.148438 2.671875 -0.328125 C 2.429688 -0.503906 2.25 -0.753906 2.125 -1.078125 C 2.007812 -1.398438 1.953125 -1.820312 1.953125 -2.34375 L 1.953125 -18.1875 C 2.171875 -18.21875 2.519531 -18.269531 3 -18.34375 C 3.476562 -18.414062 3.9375 -18.453125 4.375 -18.453125 C 4.832031 -18.453125 5.238281 -18.414062 5.59375 -18.34375 C 5.945312 -18.269531 6.242188 -18.144531 6.484375 -17.96875 C 6.722656 -17.789062 6.898438 -17.539062 7.015625 -17.21875 C 7.140625 -16.894531 7.203125 -16.472656 7.203125 -15.953125 L 7.203125 -11.15625 L 12.953125 -11.15625 L 12.953125 -18.1875 C 13.179688 -18.21875 13.535156 -18.269531 14.015625 -18.34375 C 14.492188 -18.414062 14.953125 -18.453125 15.390625 -18.453125 C 15.847656 -18.453125 16.25 -18.414062 16.59375 -18.34375 C 16.945312 -18.269531 17.242188 -18.144531 17.484375 -17.96875 C 17.722656 -17.789062 17.898438 -17.539062 18.015625 -17.21875 C 18.140625 -16.894531 18.203125 -16.472656 18.203125 -15.953125 Z M 18.203125 -0.125 "/></g></g></g><g fill="#004aad" fill-opacity="1"><g transform="translate(122.266127, 39.369676)"><g><path d="M 5.8125 -17.640625 C 6.15625 -17.835938 6.671875 -18.023438 7.359375 -18.203125 C 8.054688 -18.390625 8.753906 -18.484375 9.453125 -18.484375 C 10.453125 -18.484375 11.335938 -18.335938 12.109375 -18.046875 C 12.878906 -17.753906 13.375 -17.300781 13.59375 -16.6875 C 13.945312 -15.644531 14.332031 -14.429688 14.75 -13.046875 C 15.175781 -11.671875 15.597656 -10.242188 16.015625 -8.765625 C 16.441406 -7.296875 16.851562 -5.847656 17.25 -4.421875 C 17.644531 -2.992188 17.992188 -1.726562 18.296875 -0.625 C 18.054688 -0.34375 17.695312 -0.117188 17.21875 0.046875 C 16.738281 0.210938 16.171875 0.296875 15.515625 0.296875 C 15.035156 0.296875 14.628906 0.253906 14.296875 0.171875 C 13.960938 0.0976562 13.691406 -0.015625 13.484375 -0.171875 C 13.273438 -0.335938 13.101562 -0.550781 12.96875 -0.8125 C 12.84375 -1.070312 12.726562 -1.367188 12.625 -1.703125 L 12.09375 -3.78125 L 6.65625 -3.78125 C 6.5 -3.175781 6.335938 -2.550781 6.171875 -1.90625 C 6.015625 -1.269531 5.859375 -0.65625 5.703125 -0.0625 C 5.421875 0.0390625 5.125 0.125 4.8125 0.1875 C 4.5 0.257812 4.125 0.296875 3.6875 0.296875 C 2.664062 0.296875 1.910156 0.125 1.421875 -0.21875 C 0.929688 -0.570312 0.6875 -1.0625 0.6875 -1.6875 C 0.6875 -1.957031 0.726562 -2.234375 0.8125 -2.515625 C 0.894531 -2.796875 0.984375 -3.128906 1.078125 -3.515625 C 1.222656 -4.046875 1.421875 -4.710938 1.671875 -5.515625 C 1.921875 -6.316406 2.191406 -7.179688 2.484375 -8.109375 C 2.785156 -9.046875 3.101562 -10.003906 3.4375 -10.984375 C 3.78125 -11.960938 4.101562 -12.882812 4.40625 -13.75 C 4.707031 -14.625 4.984375 -15.398438 5.234375 -16.078125 C 5.484375 -16.753906 5.675781 -17.273438 5.8125 -17.640625 Z M 9.421875 -13.765625 C 9.140625 -12.929688 8.820312 -12 8.46875 -10.96875 C 8.125 -9.9375 7.8125 -8.890625 7.53125 -7.828125 L 11.25 -7.828125 C 10.96875 -8.910156 10.679688 -9.96875 10.390625 -11 C 10.097656 -12.03125 9.832031 -12.953125 9.59375 -13.765625 Z M 9.421875 -13.765625 "/></g></g></g><g fill="#004aad" fill-opacity="1"><g transform="translate(141.076104, 39.369676)"><g><path d="M 7.171875 -5.875 L 7.171875 -0.125 C 6.953125 -0.0625 6.609375 0 6.140625 0.0625 C 5.671875 0.125 5.203125 0.15625 4.734375 0.15625 C 4.273438 0.15625 3.867188 0.117188 3.515625 0.046875 C 3.171875 -0.0234375 2.882812 -0.148438 2.65625 -0.328125 C 2.425781 -0.503906 2.25 -0.753906 2.125 -1.078125 C 2.007812 -1.398438 1.953125 -1.820312 1.953125 -2.34375 L 1.953125 -16.46875 C 1.953125 -16.882812 2.066406 -17.207031 2.296875 -17.4375 C 2.523438 -17.675781 2.835938 -17.863281 3.234375 -18 C 3.921875 -18.238281 4.710938 -18.410156 5.609375 -18.515625 C 6.503906 -18.628906 7.460938 -18.6875 8.484375 -18.6875 C 11.242188 -18.6875 13.320312 -18.101562 14.71875 -16.9375 C 16.125 -15.78125 16.828125 -14.210938 16.828125 -12.234375 C 16.828125 -10.992188 16.503906 -9.929688 15.859375 -9.046875 C 15.222656 -8.171875 14.46875 -7.492188 13.59375 -7.015625 C 14.3125 -6.035156 15.019531 -5.113281 15.71875 -4.25 C 16.414062 -3.394531 16.96875 -2.617188 17.375 -1.921875 C 17.164062 -1.222656 16.796875 -0.6875 16.265625 -0.3125 C 15.742188 0.0507812 15.148438 0.234375 14.484375 0.234375 C 14.046875 0.234375 13.664062 0.179688 13.34375 0.078125 C 13.03125 -0.015625 12.753906 -0.148438 12.515625 -0.328125 C 12.273438 -0.503906 12.050781 -0.722656 11.84375 -0.984375 C 11.644531 -1.242188 11.457031 -1.523438 11.28125 -1.828125 L 8.765625 -5.875 Z M 9.0625 -9.875 C 9.820312 -9.875 10.421875 -10.066406 10.859375 -10.453125 C 11.296875 -10.847656 11.515625 -11.425781 11.515625 -12.1875 C 11.515625 -12.9375 11.269531 -13.503906 10.78125 -13.890625 C 10.289062 -14.285156 9.515625 -14.484375 8.453125 -14.484375 C 8.160156 -14.484375 7.921875 -14.472656 7.734375 -14.453125 C 7.554688 -14.441406 7.359375 -14.414062 7.140625 -14.375 L 7.140625 -9.875 Z M 9.0625 -9.875 "/></g></g></g><g fill="#004aad" fill-opacity="1"><g transform="translate(159.34608, 39.369676)"><g><path d="M 1.953125 -15.390625 C 1.953125 -16.253906 2.203125 -16.9375 2.703125 -17.4375 C 3.203125 -17.9375 3.878906 -18.1875 4.734375 -18.1875 L 14.640625 -18.1875 C 14.773438 -17.957031 14.898438 -17.660156 15.015625 -17.296875 C 15.128906 -16.941406 15.1875 -16.566406 15.1875 -16.171875 C 15.1875 -15.410156 15.019531 -14.867188 14.6875 -14.546875 C 14.351562 -14.222656 13.914062 -14.0625 13.375 -14.0625 L 7.046875 -14.0625 L 7.046875 -11.28125 L 13.796875 -11.28125 C 13.941406 -11.0625 14.066406 -10.773438 14.171875 -10.421875 C 14.285156 -10.078125 14.34375 -9.703125 14.34375 -9.296875 C 14.34375 -8.535156 14.179688 -7.992188 13.859375 -7.671875 C 13.535156 -7.359375 13.101562 -7.203125 12.5625 -7.203125 L 7.046875 -7.203125 L 7.046875 -4.046875 L 14.765625 -4.046875 C 14.898438 -3.828125 15.019531 -3.535156 15.125 -3.171875 C 15.238281 -2.816406 15.296875 -2.441406 15.296875 -2.046875 C 15.296875 -1.285156 15.128906 -0.738281 14.796875 -0.40625 C 14.472656 -0.0703125 14.039062 0.09375 13.5 0.09375 L 4.734375 0.09375 C 3.878906 0.09375 3.203125 -0.15625 2.703125 -0.65625 C 2.203125 -1.15625 1.953125 -1.835938 1.953125 -2.703125 Z M 1.953125 -15.390625 "/></g></g></g><path stroke-linecap="butt" transform="matrix(0.75, 0, 0, 0.75, 82.863274, 29.619676)" fill="none" stroke-linejoin="miter" d="M 15.572927 35.66856 C 17.062511 35.66856 18.208344 35.32481 19.010428 34.626893 C 19.807303 33.934185 20.208344 32.876893 20.208344 31.44981 C 20.208344 30.10606 19.791678 29.069601 18.958344 28.340434 C 18.125011 27.611268 16.906261 27.246684 15.312511 27.246684 C 14.739594 27.246684 14.265636 27.257101 13.890636 27.272726 C 13.520844 27.288351 13.135427 27.335226 12.744802 27.402934 L 12.744802 35.66856 Z M 12.796885 52.793561 C 12.40626 52.897728 11.791677 53.001895 10.947927 53.106061 C 10.114594 53.210228 9.291677 53.262312 8.473968 53.262312 C 7.661468 53.262312 6.93751 53.199812 6.31251 53.08002 C 5.697927 52.95502 5.171885 52.73627 4.739593 52.413353 C 4.31251 52.090436 3.994801 51.647728 3.776051 51.085228 C 3.567718 50.512311 3.463551 49.76752 3.463551 48.845644 L 3.463551 23.715434 C 3.463551 22.970642 3.666676 22.392517 4.072926 21.986267 C 4.484385 21.580017 5.041676 21.246684 5.755218 20.996684 C 6.96876 20.5696 8.348968 20.262309 9.895844 20.074809 C 11.442719 19.871684 12.994802 19.772725 14.557302 19.772725 C 19.458344 19.772725 23.208345 20.824809 25.807303 22.923767 C 28.401053 25.022726 29.697929 27.866476 29.697929 31.44981 C 29.697929 33.194601 29.421887 34.772727 28.864595 36.178977 C 28.31772 37.585227 27.50522 38.79356 26.416678 39.809185 C 25.343762 40.819602 23.97397 41.600852 22.31772 42.152936 C 20.666678 42.699811 18.755219 42.975852 16.588552 42.975852 L 12.796885 42.975852 Z M 32.843762 36.788352 C 32.843762 34.01231 33.281262 31.559185 34.145846 29.434185 C 35.026054 27.298768 36.218762 25.512309 37.729179 24.069601 C 39.239596 22.626892 41.015638 21.533142 43.052096 20.78835 C 45.10418 20.043559 47.317722 19.668559 49.708347 19.668559 C 52.083347 19.668559 54.291681 20.043559 56.333347 20.78835 C 58.380223 21.533142 60.171889 22.626892 61.697931 24.069601 C 63.223973 25.512309 64.42189 27.298768 65.291682 29.434185 C 66.166682 31.559185 66.604182 34.01231 66.604182 36.788352 C 66.604182 39.559185 66.182307 42.017519 65.32814 44.173769 C 64.479181 46.324811 63.29689 48.121686 61.776056 49.564395 C 60.265639 51.001895 58.479181 52.095645 56.411472 52.845645 C 54.354181 53.590437 52.119805 53.965437 49.708347 53.965437 C 47.286472 53.965437 45.04168 53.58002 42.973971 52.819603 C 40.91668 52.053978 39.140638 50.944603 37.651054 49.48627 C 36.156262 48.027936 34.979179 46.231061 34.119804 44.095644 C 33.270846 41.960227 32.843762 39.522727 32.843762 36.788352 Z M 42.453138 36.788352 C 42.453138 40.027935 43.109388 42.444602 44.421888 44.043561 C 45.739597 45.637311 47.500013 46.439394 49.708347 46.439394 C 51.94793 46.439394 53.718764 45.637311 55.031264 44.043561 C 56.348972 42.444602 57.010431 40.027935 57.010431 36.788352 C 57.010431 33.585227 56.359389 31.189393 55.057306 29.590435 C 53.765639 27.991476 52.000014 27.194601 49.76043 27.194601 C 47.552097 27.194601 45.781263 27.986268 44.44793 29.564393 C 43.119805 31.142518 42.453138 33.553977 42.453138 36.788352 Z M 81.1146 40.147727 C 79.552099 39.611269 78.130224 39.069602 76.843766 38.522727 C 75.567724 37.965435 74.468766 37.298768 73.536474 36.517518 C 72.619807 35.736268 71.895849 34.803977 71.375015 33.715435 C 70.864599 32.632101 70.60939 31.309185 70.60939 29.746685 C 70.60939 26.725851 71.770849 24.309184 74.098974 22.496684 C 76.421891 20.678975 79.687516 19.772725 83.890641 19.772725 C 85.416683 19.772725 86.83335 19.8821 88.14585 20.10085 C 89.463559 20.309184 90.593767 20.637309 91.531267 21.090434 C 92.479184 21.533142 93.213559 22.100851 93.744809 22.793559 C 94.281267 23.481059 94.552101 24.288351 94.552101 25.215434 C 94.552101 26.137309 94.338559 26.923768 93.916684 27.585226 C 93.489601 28.246684 92.973976 28.803976 92.364601 29.262309 C 91.58335 28.767518 90.531267 28.335226 89.213559 27.960226 C 87.901058 27.590434 86.468767 27.402934 84.906267 27.402934 C 83.296891 27.402934 82.125016 27.621684 81.375016 28.064393 C 80.630225 28.507101 80.255224 29.069601 80.255224 29.746685 C 80.255224 30.283143 80.484391 30.720643 80.947933 31.059185 C 81.416683 31.392518 82.109391 31.69981 83.031266 31.986268 L 85.854183 32.897726 C 89.197934 33.965435 91.765642 35.330018 93.562517 36.986268 C 95.359392 38.632102 96.260434 40.876894 96.260434 43.715436 C 96.260434 46.736269 95.062517 49.184186 92.677101 51.059186 C 90.296892 52.92377 86.8021 53.86127 82.182308 53.86127 C 80.541683 53.86127 79.020849 53.725853 77.614599 53.45502 C 76.213557 53.184187 74.989599 52.793561 73.942724 52.283145 C 72.890641 51.762311 72.072932 51.121686 71.479182 50.356061 C 70.901057 49.595645 70.60939 48.710228 70.60939 47.715436 C 70.60939 46.689394 70.906265 45.814394 71.505224 45.085227 C 72.114599 44.356061 72.776057 43.793561 73.484391 43.402936 C 74.484391 44.184186 75.697932 44.861269 77.130224 45.434186 C 78.572933 46.001894 80.145849 46.283144 81.859391 46.283144 C 83.604183 46.283144 84.828142 46.017519 85.541683 45.486269 C 86.255225 44.949811 86.609392 44.324811 86.609392 43.611269 C 86.609392 42.902936 86.322933 42.356061 85.750017 41.986269 C 85.187517 41.611269 84.385433 41.246685 83.354183 40.892519 Z M 99.838559 28.142518 C 99.583351 27.751893 99.348976 27.225851 99.135434 26.553976 C 98.927101 25.876893 98.822934 25.168559 98.822934 24.418559 C 98.822934 23.033142 99.130226 22.038351 99.744809 21.439392 C 100.36981 20.830017 101.18231 20.527934 102.177101 20.527934 L 125.432312 20.527934 C 125.677103 20.918559 125.901062 21.455017 126.109395 22.132101 C 126.328145 22.798767 126.43752 23.507101 126.43752 24.251892 C 126.43752 25.642518 126.12502 26.637309 125.50002 27.246684 C 124.880228 27.845643 124.072937 28.142518 123.078145 28.142518 L 117.166686 28.142518 L 117.166686 52.793561 C 116.776061 52.897728 116.156269 53.001895 115.317727 53.106061 C 114.484394 53.210228 113.661477 53.262312 112.843769 53.262312 C 112.02606 53.262312 111.30731 53.199812 110.68231 53.08002 C 110.05731 52.95502 109.531269 52.73627 109.104185 52.413353 C 108.68231 52.090436 108.359394 51.647728 108.140643 51.085228 C 107.93231 50.512311 107.828143 49.76752 107.828143 48.845644 L 107.828143 28.142518 Z M 99.838559 28.142518 " stroke="#7f0392" stroke-width="1.999999" stroke-opacity="1" stroke-miterlimit="4"/></svg>