<svg xmlns="http://www.w3.org/2000/svg" xmlns:xlink="http://www.w3.org/1999/xlink" width="60" zoomAndPan="magnify" viewBox="0 0 45 44.999999" height="60" preserveAspectRatio="xMidYMid meet" version="1.0"><defs><clipPath id="id1"><path d="M 31 5 L 43.246094 5 L 43.246094 10 L 31 10 Z M 31 5 " clip-rule="nonzero"/></clipPath><clipPath id="id2"><path d="M 35 1.996094 L 40 1.996094 L 40 14 L 35 14 Z M 35 1.996094 " clip-rule="nonzero"/></clipPath><clipPath id="id3"><path d="M 1.996094 3 L 42 3 L 42 43.246094 L 1.996094 43.246094 Z M 1.996094 3 " clip-rule="nonzero"/></clipPath><clipPath id="id4"><path d="M 8.820312 14 L 30 14 L 30 35.9375 L 8.820312 35.9375 Z M 8.820312 14 " clip-rule="nonzero"/></clipPath><clipPath id="id5"><path d="M 11 11.9375 L 32.820312 11.9375 L 32.820312 34 L 11 34 Z M 11 11.9375 " clip-rule="nonzero"/></clipPath></defs><g clip-path="url(#id1)"><path fill="#004aad" d="M 31.460938 5.921875 L 43.246094 5.921875 L 43.246094 9.851562 L 31.460938 9.851562 Z M 31.460938 5.921875 " fill-opacity="1" fill-rule="evenodd"/></g><g clip-path="url(#id2)"><path fill="#004aad" d="M 35.386719 1.996094 L 39.316406 1.996094 L 39.316406 13.78125 L 35.386719 13.78125 Z M 35.386719 1.996094 " fill-opacity="1" fill-rule="evenodd"/></g><g clip-path="url(#id3)"><path fill="#7f0392" d="M 7.886719 7.886719 C 6.804688 7.886719 5.921875 8.765625 5.921875 9.851562 L 5.921875 37.351562 C 5.921875 38.4375 6.804688 39.316406 7.886719 39.316406 L 35.386719 39.316406 C 36.472656 39.316406 37.351562 38.4375 37.351562 37.351562 L 37.351562 18.691406 L 41.28125 18.691406 L 41.28125 37.351562 C 41.28125 40.605469 38.644531 43.246094 35.386719 43.246094 L 7.886719 43.246094 C 4.632812 43.246094 1.996094 40.605469 1.996094 37.351562 L 1.996094 9.851562 C 1.996094 6.597656 4.632812 3.960938 7.886719 3.960938 L 26.546875 3.960938 L 26.546875 7.886719 Z M 7.886719 7.886719 " fill-opacity="1" fill-rule="evenodd"/></g><g clip-path="url(#id4)"><path fill="#a6a6a6" d="M 11.164062 14.867188 C 9.871094 14.867188 8.820312 15.914062 8.820312 17.207031 L 8.820312 33.597656 C 8.820312 34.890625 9.871094 35.9375 11.164062 35.9375 L 27.554688 35.9375 C 28.847656 35.9375 29.894531 34.890625 29.894531 33.597656 L 29.894531 17.207031 C 29.894531 15.914062 28.847656 14.867188 27.554688 14.867188 Z M 11.164062 14.867188 " fill-opacity="1" fill-rule="nonzero"/></g><g clip-path="url(#id5)"><path fill="#545454" d="M 14.089844 11.9375 C 12.796875 11.9375 11.75 12.988281 11.75 14.28125 L 11.75 30.671875 C 11.75 31.964844 12.796875 33.011719 14.089844 33.011719 L 30.480469 33.011719 C 31.773438 33.011719 32.820312 31.964844 32.820312 30.671875 L 32.820312 14.28125 C 32.820312 12.988281 31.773438 11.9375 30.480469 11.9375 Z M 14.089844 11.9375 " fill-opacity="1" fill-rule="nonzero"/></g><path fill="#a6a6a6" d="M 20.03125 17.417969 C 19.671875 17.167969 19.203125 17.136719 18.816406 17.339844 C 18.429688 17.542969 18.1875 17.941406 18.1875 18.378906 L 18.1875 26.574219 C 18.1875 27.007812 18.429688 27.410156 18.816406 27.613281 C 19.203125 27.8125 19.671875 27.78125 20.03125 27.53125 L 25.882812 23.433594 C 26.195312 23.214844 26.382812 22.859375 26.382812 22.476562 C 26.382812 22.09375 26.195312 21.734375 25.882812 21.515625 Z M 20.03125 17.417969 " fill-opacity="1" fill-rule="nonzero"/></svg>